<svg width="270" height="82" xmlns="http://www.w3.org/2000/svg" class="logo_omnidb">

 <g>
  <title>background</title>
  <rect fill="none" id="canvas_background" height="84" width="272" y="-1" x="-1"/>
 </g>
 <g>
  <title>Layer 1</title>
  <g id="svg_1" class="logotype_omnidb">
   <g id="svg_2" class="logotype_omni logo_omnidb_to-blue">
    <svg width="73.638" height="24.961" viewBox="0 0 73.638 24.961" y="30" x="85"
        xmlns="http://www.w3.org/2000/svg">
        <path fill="#878FC6" d="M 5.171 24.668 L 5.171 23.525 L 8.086 23.525 L 8.101 3.384 L 5.376 3.384 A 5.897 5.897 0 0 0 4.07 3.609 Q 3.232 3.861 2.655 4.375 A 3.279 3.279 0 0 0 2.007 5.171 Q 1.274 6.416 1.143 9.302 L 0 9.302 L 0 2.256 L 20.127 2.256 L 20.127 9.302 L 18.984 9.302 Q 18.853 6.445 18.105 5.171 A 3.393 3.393 0 0 0 16.171 3.647 Q 15.539 3.437 14.751 3.384 L 12.041 3.384 L 12.041 23.525 L 14.971 23.525 L 14.971 24.668 L 5.171 24.668 Z" id="0" vector-effect="non-scaling-stroke"/>
        <path fill="#878FC6" d="M 36.24 21.401 L 37.017 22.104 A 7.481 7.481 0 0 1 32.114 24.843 A 11.045 11.045 0 0 1 30.469 24.961 A 7.429 7.429 0 0 1 28.619 24.717 A 9.448 9.448 0 0 1 27.539 24.368 A 8.036 8.036 0 0 1 25.735 23.397 A 7.087 7.087 0 0 1 24.946 22.734 A 7.401 7.401 0 0 1 22.761 17.862 A 9.911 9.911 0 0 1 22.734 17.131 A 8.478 8.478 0 0 1 23.129 14.489 A 6.969 6.969 0 0 1 24.961 11.587 A 7.597 7.597 0 0 1 29.649 9.493 A 10.211 10.211 0 0 1 30.615 9.448 Q 35.364 9.448 36.795 13.194 A 7.657 7.657 0 0 1 36.958 13.667 A 9.007 9.007 0 0 1 37.307 15.338 A 11.799 11.799 0 0 1 37.383 16.699 L 26.777 16.699 L 26.777 17.139 A 12.323 12.323 0 0 0 26.938 19.208 Q 27.418 22.02 29.341 23.086 A 3.705 3.705 0 0 0 30.486 23.49 A 5.07 5.07 0 0 0 31.406 23.569 Q 34.072 23.569 36.24 21.401 Z M 26.851 15.498 L 33.442 15.498 A 13.186 13.186 0 0 0 33.367 14.204 Q 33.22 12.886 32.791 12.042 A 3.728 3.728 0 0 0 32.725 11.917 A 2.269 2.269 0 0 0 31.102 10.736 A 3.34 3.34 0 0 0 30.469 10.679 A 2.987 2.987 0 0 0 27.709 12.289 Q 27.351 12.914 27.132 13.78 A 11.116 11.116 0 0 0 26.851 15.498 Z" id="1" vector-effect="non-scaling-stroke"/>
        <path fill="#878FC6" d="M 52.661 21.855 L 53.423 22.559 A 5.967 5.967 0 0 1 50.141 24.664 Q 49.021 24.961 47.651 24.961 A 8.037 8.037 0 0 1 45.879 24.755 A 10.157 10.157 0 0 1 44.766 24.434 A 7.675 7.675 0 0 1 42.538 23.229 A 7.226 7.226 0 0 1 42.144 22.896 A 7.186 7.186 0 0 1 39.837 18.178 A 9.992 9.992 0 0 1 39.785 17.146 A 8.944 8.944 0 0 1 40.106 14.685 A 6.631 6.631 0 0 1 42.092 11.499 A 8.014 8.014 0 0 1 46.44 9.534 A 10.898 10.898 0 0 1 47.944 9.434 A 7.949 7.949 0 0 1 51.687 10.334 Q 53.408 11.235 53.408 12.876 A 2.264 2.264 0 0 1 53.311 13.554 A 1.827 1.827 0 0 1 52.852 14.312 Q 52.295 14.868 51.665 14.868 A 3.595 3.595 0 0 1 51.035 14.816 Q 50.69 14.755 50.416 14.62 A 1.758 1.758 0 0 1 50.054 14.385 Q 49.482 13.901 49.482 13.081 A 2.566 2.566 0 0 1 49.577 12.362 A 1.752 1.752 0 0 1 50.552 11.235 A 4.479 4.479 0 0 0 48.61 10.589 A 5.593 5.593 0 0 0 48.047 10.562 A 3.529 3.529 0 0 0 44.679 12.557 Q 43.897 14.053 43.834 16.671 A 19.418 19.418 0 0 0 43.828 17.139 Q 43.828 19.52 44.503 21.033 A 4.187 4.187 0 0 0 46.377 23.115 A 3.882 3.882 0 0 0 47.58 23.498 A 5.1 5.1 0 0 0 48.354 23.555 Q 51.021 23.555 52.661 21.855 Z" id="2" vector-effect="non-scaling-stroke"/>
        <path fill="#878FC6" d="M 54.639 24.668 L 54.639 23.525 L 57.012 23.525 L 57.012 1.143 L 54.492 1.143 L 54.492 0 L 60.82 0 L 60.82 11.499 A 7.015 7.015 0 0 1 65.859 9.434 A 6.49 6.49 0 0 1 68.127 9.822 A 5.987 5.987 0 0 1 69.331 10.43 Q 71.265 11.719 71.265 14.531 L 71.265 23.525 L 73.638 23.525 L 73.638 24.668 L 65.083 24.668 L 65.083 23.525 L 67.456 23.525 L 67.456 14.238 A 12.946 12.946 0 0 0 67.436 13.495 Q 67.372 12.38 67.097 11.909 A 3.083 3.083 0 0 0 66.84 11.531 Q 66.689 11.343 66.524 11.212 A 1.479 1.479 0 0 0 66.292 11.06 Q 65.891 10.849 65.114 10.828 A 6.6 6.6 0 0 0 64.929 10.825 A 3.622 3.622 0 0 0 64.085 10.932 Q 63.697 11.025 63.275 11.199 A 7.323 7.323 0 0 0 62.871 11.382 A 5.783 5.783 0 0 0 61.35 12.47 A 7.148 7.148 0 0 0 60.82 13.052 L 60.82 23.525 L 63.193 23.525 L 63.193 24.668 L 54.639 24.668 Z" id="3" vector-effect="non-scaling-stroke"/>
    </svg>
   </g>
   <g id="svg_3" class="logotype_db logo_omnidb_to-darkblue">
<svg width="82.515" height="24.668" viewBox="0 0 82.515 24.668" y="30" x="165"
    xmlns="http://www.w3.org/2000/svg">
    <path fill="#525678" d="M 0 24.668 L 0 22.954 L 13.931 3.398 L 7.412 3.398 Q 5.091 3.398 4.014 4.188 A 2.328 2.328 0 0 0 3.604 4.57 A 3.651 3.651 0 0 0 3.064 5.476 Q 2.658 6.42 2.479 7.895 A 17.274 17.274 0 0 0 2.402 8.687 L 1.055 8.687 L 1.055 2.256 L 18.091 2.256 L 18.091 3.94 L 4.351 23.525 L 12.744 23.525 A 8.253 8.253 0 0 0 14.035 23.432 Q 15.798 23.152 16.523 22.031 A 3.211 3.211 0 0 0 16.862 21.307 Q 17.13 20.517 17.232 19.28 A 18.501 18.501 0 0 0 17.285 18.267 L 18.647 18.267 L 18.647 24.668 L 0 24.668 Z" id="0" vector-effect="non-scaling-stroke"/>
    <path fill="#525678" d="M 21.284 24.668 L 21.284 23.525 L 23.657 23.525 L 23.657 1.143 L 21.138 1.143 L 21.138 0 L 27.466 0 L 27.466 11.499 A 7.015 7.015 0 0 1 32.505 9.434 A 6.49 6.49 0 0 1 34.773 9.822 A 5.987 5.987 0 0 1 35.977 10.43 Q 37.91 11.719 37.91 14.531 L 37.91 23.525 L 40.283 23.525 L 40.283 24.668 L 31.729 24.668 L 31.729 23.525 L 34.102 23.525 L 34.102 14.238 A 12.946 12.946 0 0 0 34.082 13.495 Q 34.017 12.38 33.743 11.909 A 3.083 3.083 0 0 0 33.486 11.531 Q 33.334 11.343 33.17 11.212 A 1.479 1.479 0 0 0 32.937 11.06 Q 32.536 10.849 31.759 10.828 A 6.6 6.6 0 0 0 31.575 10.825 A 3.622 3.622 0 0 0 30.73 10.932 Q 30.342 11.025 29.921 11.199 A 7.323 7.323 0 0 0 29.517 11.382 A 5.783 5.783 0 0 0 27.995 12.47 A 7.148 7.148 0 0 0 27.466 13.052 L 27.466 23.525 L 29.839 23.525 L 29.839 24.668 L 21.284 24.668 Z" id="1" vector-effect="non-scaling-stroke"/>
    <path fill="#525678" d="M 41.338 24.668 L 41.338 23.525 L 43.711 23.525 L 43.711 10.825 L 41.543 10.825 L 41.543 9.683 L 47.593 9.683 L 47.593 23.525 L 49.966 23.525 L 49.966 24.668 L 41.338 24.668 Z M 45.685 6.694 A 1.932 1.932 0 0 0 47.08 6.108 A 1.963 1.963 0 0 0 47.515 5.464 A 2.098 2.098 0 0 0 47.666 4.658 A 2.219 2.219 0 0 0 47.666 4.619 A 1.932 1.932 0 0 0 47.505 3.867 A 2.598 2.598 0 0 0 47.386 3.618 Q 47.039 2.984 46.414 2.76 A 2.263 2.263 0 0 0 45.645 2.637 A 2.45 2.45 0 0 0 45.618 2.637 A 1.949 1.949 0 0 0 44.209 3.223 A 1.781 1.781 0 0 0 43.97 3.52 Q 43.623 4.059 43.623 4.893 A 1.362 1.362 0 0 0 43.651 5.167 Q 43.752 5.662 44.224 6.116 A 1.997 1.997 0 0 0 45.659 6.694 A 2.367 2.367 0 0 0 45.685 6.694 Z" id="2" vector-effect="non-scaling-stroke"/>
    <path fill="#525678" d="M 57.012 24.668 L 57.012 23.525 L 59.912 23.525 L 59.927 16.025 L 52.427 3.398 L 50.596 3.398 L 50.596 2.256 L 60.029 2.256 L 60.029 3.398 L 57.056 3.398 L 63.047 13.931 L 68.994 3.398 L 66.299 3.398 L 66.299 2.256 L 72.773 2.256 L 72.773 3.398 L 70.562 3.398 L 63.867 15.117 L 63.867 23.525 L 66.782 23.525 L 66.782 24.668 L 57.012 24.668 Z" id="3" vector-effect="non-scaling-stroke"/>
    <path fill="#525678" d="M 73.887 24.668 L 73.887 23.525 L 76.26 23.525 L 76.26 10.825 L 74.092 10.825 L 74.092 9.683 L 80.142 9.683 L 80.142 23.525 L 82.515 23.525 L 82.515 24.668 L 73.887 24.668 Z M 78.234 6.694 A 1.932 1.932 0 0 0 79.629 6.108 A 1.963 1.963 0 0 0 80.064 5.464 A 2.098 2.098 0 0 0 80.215 4.658 A 2.219 2.219 0 0 0 80.214 4.619 A 1.932 1.932 0 0 0 80.054 3.867 A 2.598 2.598 0 0 0 79.935 3.618 Q 79.588 2.984 78.963 2.76 A 2.263 2.263 0 0 0 78.193 2.637 A 2.45 2.45 0 0 0 78.167 2.637 A 1.949 1.949 0 0 0 76.758 3.223 A 1.781 1.781 0 0 0 76.518 3.52 Q 76.172 4.059 76.172 4.893 A 1.362 1.362 0 0 0 76.2 5.167 Q 76.301 5.662 76.772 6.116 A 1.997 1.997 0 0 0 78.208 6.694 A 2.367 2.367 0 0 0 78.234 6.694 Z" id="4" vector-effect="non-scaling-stroke"/>
</svg>
   </g>
  </g>
  <g id="svg_4" class="icon_grid logo_omnidb_to-blue">
   <path id="svg_5" d="m57.694,31.129c-1.484,-2.352 -3.474,-4.342 -5.825,-5.823c0.646,1.263 1.214,2.643 1.691,4.129c1.489,0.48 2.87,1.051 4.134,1.694z" fill="#878FC6"/>
   <path id="svg_6" d="m43.292,22.507l0,5.234c2.323,0.072 4.553,0.333 6.649,0.762c-0.969,-2.344 -2.205,-4.237 -3.614,-5.531c-0.984,-0.236 -1.996,-0.392 -3.035,-0.465z" fill="#878FC6"/>
   <path id="svg_7" d="m57.692,50.87c-1.265,0.644 -2.643,1.215 -4.132,1.691c-0.477,1.489 -1.046,2.867 -1.691,4.132c2.352,-1.482 4.341,-3.472 5.823,-5.823z" fill="#878FC6"/>
   <path id="svg_8" d="m60.188,44.681c-0.359,-0.742 -0.612,-1.537 -0.744,-2.381l-4.192,0c-0.072,2.322 -0.332,4.551 -0.756,6.645c2.344,-0.969 4.238,-2.207 5.532,-3.618c0.052,-0.217 0.117,-0.427 0.16,-0.646z" fill="#878FC6"/>
   <path id="svg_9" d="m60.029,36.675c-1.293,-1.414 -3.187,-2.652 -5.534,-3.624c0.424,2.097 0.684,4.325 0.756,6.647l4.192,0c0.132,-0.844 0.385,-1.639 0.747,-2.378c-0.045,-0.219 -0.11,-0.431 -0.161,-0.645z" fill="#878FC6"/>
   <path id="svg_10" d="m52.168,42.3l-8.875,0l0,8.873c2.79,-0.092 5.421,-0.475 7.782,-1.094c0.618,-2.361 1.001,-4.989 1.093,-7.779z" fill="#878FC6"/>
   <path id="svg_11" d="m43.292,39.699l8.875,0c-0.092,-2.79 -0.475,-5.421 -1.094,-7.782c-2.361,-0.619 -4.992,-1.002 -7.782,-1.094l0,8.876l0.001,0z" fill="#878FC6"/>
   <path id="svg_12" d="m43.292,59.493c1.039,-0.072 2.05,-0.229 3.036,-0.466c1.409,-1.296 2.645,-3.187 3.614,-5.531c-2.096,0.427 -4.327,0.687 -6.649,0.759l0,5.238l-0.001,0z" fill="#878FC6"/>
   <path id="svg_13" d="m29.499,48.945c-0.427,-2.094 -0.687,-4.322 -0.759,-6.645l-5.24,0c0.071,1.036 0.228,2.046 0.462,3.026c1.295,1.415 3.19,2.65 5.537,3.619z" fill="#878FC6"/>
   <path id="svg_14" d="m40.695,22.507c-1.038,0.072 -2.05,0.229 -3.034,0.465c-1.409,1.294 -2.645,3.188 -3.612,5.528c2.096,-0.426 4.324,-0.687 6.646,-0.759l0,-5.234z" fill="#878FC6"/>
   <path id="svg_15" d="m40.695,30.823c-2.789,0.092 -5.419,0.475 -7.779,1.094c-0.621,2.361 -1.002,4.992 -1.094,7.782l8.873,0l0,-8.876z" fill="#878FC6"/>
   <path id="svg_16" d="m32.123,25.304c-2.353,1.481 -4.344,3.472 -5.827,5.822c1.265,-0.643 2.645,-1.214 4.135,-1.691c0.479,-1.488 1.048,-2.869 1.692,-4.131z" fill="#878FC6"/>
   <path id="svg_17" d="m40.695,59.493l0,-5.238c-2.322,-0.072 -4.552,-0.332 -6.646,-0.759c0.967,2.345 2.202,4.238 3.612,5.531c0.985,0.236 1.996,0.393 3.034,0.466z" fill="#878FC6"/>
   <path id="svg_18" d="m23.499,39.699l5.241,0c0.071,-2.322 0.332,-4.551 0.759,-6.647c-2.348,0.969 -4.243,2.21 -5.538,3.624c-0.234,0.98 -0.39,1.989 -0.462,3.023z" fill="#878FC6"/>
   <path id="svg_19" d="m32.123,56.695c-0.644,-1.265 -1.213,-2.643 -1.691,-4.131c-1.489,-0.478 -2.868,-1.049 -4.133,-1.691c1.482,2.35 3.472,4.34 5.824,5.822z" fill="#878FC6"/>
   <path id="svg_20" d="m40.695,42.3l-8.873,0c0.092,2.79 0.475,5.418 1.094,7.779c2.359,0.619 4.99,1.002 7.779,1.094l0,-8.873z" fill="#878FC6"/>
  </g>
  <g id="svg_21" class="icon_external logo_omnidb_to-blue">
   <g id="svg_22" class="icon_external_rings">
    <path id="svg_23" d="m36.436,14.434c0.642,1.11 0.979,2.306 1.082,3.505c1.451,-0.281 2.944,-0.438 4.477,-0.438c10.299,0 19.03,6.635 22.203,15.854c1.094,-0.513 2.301,-0.823 3.59,-0.823c0.431,0 0.846,0.064 1.26,0.127c-3.561,-11.562 -14.325,-19.967 -27.052,-19.967c-2.165,0 -4.264,0.266 -6.291,0.726c0.256,0.325 0.518,0.647 0.731,1.016z" fill="#878FC6"/>
    <path id="svg_24" d="m21.771,59.104c0.646,-1.115 1.519,-2.007 2.513,-2.695c-3.58,-4.107 -5.765,-9.463 -5.783,-15.339c0,-0.022 -0.006,-0.044 -0.006,-0.068c0,-0.019 0.005,-0.036 0.005,-0.055c0.013,-5.874 2.193,-11.227 5.766,-15.339c-0.99,-0.689 -1.854,-1.593 -2.497,-2.706c-0.211,-0.366 -0.356,-0.747 -0.508,-1.127c-4.685,5.052 -7.572,11.795 -7.572,19.227c0,7.436 2.889,14.179 7.576,19.228c0.15,-0.379 0.296,-0.762 0.506,-1.126z" fill="#878FC6"/>
    <path id="svg_25" d="m67.787,49.47c-1.289,0 -2.499,-0.311 -3.592,-0.826c-3.175,9.222 -11.901,15.853 -22.2,15.853c-1.535,0 -3.031,-0.159 -4.483,-0.438c-0.103,1.202 -0.432,2.401 -1.072,3.515c-0.212,0.368 -0.472,0.687 -0.728,1.01c2.023,0.46 4.121,0.725 6.283,0.725c12.728,0 23.492,-8.403 27.055,-19.965c-0.418,0.061 -0.832,0.126 -1.263,0.126z" fill="#878FC6"/>
   </g>
   <g id="svg_26" class="icon_external_spheres logo_omnidb_to-darkblue">
    <path id="svg_27" d="m73.462,41.001c0,-3.137 -2.539,-5.678 -5.676,-5.678s-5.683,2.541 -5.683,5.678s2.546,5.674 5.683,5.674s5.676,-2.537 5.676,-5.674z" fill="#525678"/>
    <path id="svg_28" d="m26.262,13.754c-2.718,1.566 -3.647,5.033 -2.079,7.753c1.566,2.715 5.042,3.645 7.757,2.079c2.718,-1.568 3.645,-5.045 2.079,-7.755c-1.573,-2.715 -5.04,-3.65 -7.757,-2.077z" fill="#525678"/>
    <path id="svg_29" d="m26.267,68.256c2.72,1.568 6.187,0.639 7.755,-2.076c1.566,-2.715 0.636,-6.189 -2.077,-7.755c-2.72,-1.571 -6.191,-0.639 -7.752,2.074c-1.571,2.72 -0.644,6.192 2.074,7.757z" fill="#525678"/>
   </g>
  </g>
 </g>
</svg>